<svg id="Layer_1" data-name="Layer 1" xmlns="http://www.w3.org/2000/svg" viewBox="0 0 563.4 544.14"><defs><style>.cls-1{fill:#feea2d;}.cls-2{fill:#32c2db;}.cls-3{fill:#fff;}.cls-4{fill:#ef4276;}.cls-5{fill:none;stroke:#231f20;stroke-miterlimit:10;}</style></defs><title>next-tech-adventurers-logo-for-use</title><path class="cls-1" d="M313.11,94.32a229.46,229.46,0,0,0-36.92,3l-37.68-77.5L206.69,71.14l-39-27v73.05L95.09,39.3l7.35,110.13L57.6,131.89l28.26,60.59L44,183.42l22,67.45L15.69,288.8,85.22,324C86.15,449,187.82,550.14,313.11,550.14,439,550.14,541,448.1,541,322.23S439,94.32,313.11,94.32Z" transform="translate(-15.69 -19.81)"/><path class="cls-2" d="M407.22,486.75s-3.76-49.12-.51-58.22S423.6,379.81,434,367.79s29.24-38.66,31.19-45.81,9.88-34.44,16.64-44.18,21.7-27.29,23-45.48,4.06-28.56,6.34-31.68,16.4-23.88,14-29.73-11.64-10.23-15.81-7.8-29,13.64-34.87,22.42-12.18,22.42-14.13,26.31S430.59,260.09,424.74,265,367.43,69.53,340.58,96L221.65,234.73s3.3,156,13.53,171.06,19,21.44,21.26,35.09c1.59,9.62-.28,68.22-.28,68.22S344.36,518.92,407.22,486.75Z" transform="translate(-15.69 -19.81)"/><rect class="cls-3" x="263.3" y="58.62" width="166.04" height="337.71" rx="8.13" ry="8.13" transform="translate(414.67 613.4) rotate(-135)"/><rect class="cls-4" x="217.47" y="326.81" width="41.01" height="18.02" rx="9.01" ry="9.01" transform="translate(153.09 721.74) rotate(-135)"/><rect class="cls-4" x="442.28" y="114.26" width="28.66" height="5.85" rx="2.92" ry="2.92" transform="translate(680.93 503.11) rotate(-135)"/><rect class="cls-4" x="273.97" y="83.61" width="151.03" height="281.41" rx="4" ry="4" transform="translate(422.29 610.24) rotate(-135)"/><g id="g5067"><path id="path5069" class="cls-3" d="M348.67,211l-2.35-6.66-20-26.67,3.58-.89,34.41,29.75,20.25-5.8a29.25,29.25,0,0,1,7.14-.73A58.42,58.42,0,0,0,281,233.35l48.5-16.85Z" transform="translate(-15.69 -19.81)"/></g><g id="g5071"><path id="path5073" class="cls-3" d="M393.88,205.28a31.65,31.65,0,0,1-7,3.5l-20.3,5.78L353.06,258l-3.52,1.15,2.86-33.2-1.6-6.89-19,5.43-50.27,11.83a58.42,58.42,0,1,0,112.36-31.07" transform="translate(-15.69 -19.81)"/></g><g id="g5079"><path id="path5081" class="cls-3" d="M390.56,278.69c-3.21,0-5.2-2.51-5.2-5.58a5.25,5.25,0,0,1,5.2-5.58c2.89,0,5.16,2.29,5.16,5.58s-2.27,5.58-5.16,5.58m0-11.79a6.2,6.2,0,1,0,6.07,6.21,6,6,0,0,0-6.07-6.21" transform="translate(-15.69 -19.81)"/></g><g id="g5083"><path id="path5085" class="cls-3" d="M389.1,272.6v-2.26h1.53c.77,0,1.68.11,1.68,1.05,0,1.11-.84,1.2-1.8,1.2Zm4.34-1.05c0-1.49-.91-2.11-2.68-2.11H388v7.34h1.21v-3.14h1.13l1.9,3.14h1.36l-2.05-3.22a1.88,1.88,0,0,0,1.92-2" transform="translate(-15.69 -19.81)"/></g><path class="cls-2" d="M221.65,234.73s18.87-2.2,26-6.75,4.87-22.77,4.87-22.77,16.57,7.5,29.24-3.55,0-38.79,0-38.79,17.54,6.63,32.49-2.79,12.32-41.69,12.32-41.69c9.42,3.57,15.62.11,25-5.09S366.9,89.49,366.9,89.49l4.79-4.79s-6.58-12.32-21.2-12.32-21,2.92-27.78,10.72-10.23,20.47-10.23,20.47-18.64-4.39-28.32,3.9S273,121.68,273,132.11V155.7s-11.7-9.26-19.49-5.85S235.77,160.5,234,164c-2.27,4.52-3.44,14.41-2.92,18.52s5.36,8.77,5.36,8.77-8.28-5.36-14.13-2.92-18.52,12.18-19,15.59-1.61,7.09,0,17.06,10,22.1,10,22.1Z" transform="translate(-15.69 -19.81)"/><path class="cls-3" d="M310,126.46s-12.24-13.36-22.45-5.7-8.4,24.95-8.4,24.95S295.74,127.85,310,126.46Z" transform="translate(-15.69 -19.81)"/><path class="cls-3" d="M273.65,170.34s-11.71-12.19-21-5.42C238.44,175.2,246,191,246,191S249.36,168.16,273.65,170.34Z" transform="translate(-15.69 -19.81)"/><path class="cls-3" d="M234.8,196.81s-9.47-3.4-16,2.91-2.43,14.81-2.43,14.81A20.49,20.49,0,0,1,234.8,196.81Z" transform="translate(-15.69 -19.81)"/><path class="cls-3" d="M340.58,80.49s-7.15-5.2-13.32,1.95-6.82,9.1-6.82,9.1S325.64,81.47,340.58,80.49Z" transform="translate(-15.69 -19.81)"/><path class="cls-4" d="M75.46,359.6s17.6,204.35,237.81,204.35c195.61,0,223.75-149,238.95-197L579.1,375,524.46,269.43,437,330.95l27.21,8.88s-20.63,115.5-143.74,123.52C172.73,473,173.8,318,173.8,318l-58.29,54.31Z" transform="translate(-15.69 -19.81)"/><path class="cls-5" d="M404.11,475.63" transform="translate(-15.69 -19.81)"/><path class="cls-4" d="M108,300.31q-2.92.59-8.95-.46a56.62,56.62,0,0,1-16.48-5.46A5.22,5.22,0,0,1,80,291.87a7.22,7.22,0,0,1-.24-4.1,3.94,3.94,0,0,1,.67-1.86,1.43,1.43,0,0,1,1.4-.32,26.5,26.5,0,0,1,4.75,1.88q2.62,1.16,4.6,1.93A49.59,49.59,0,0,0,96.1,291a39.48,39.48,0,0,1-8.71-6.73,20.13,20.13,0,0,1-4.32-6.43,10.19,10.19,0,0,1-.71-5.24q.77-4.45,5.22-3.68A55.91,55.91,0,0,1,97,272.07a48.17,48.17,0,0,0,7.65,2.66q2.74.48,3.08-1.51a5.41,5.41,0,0,0-1.11-3.54,55.63,55.63,0,0,0-4.57-6,2.44,2.44,0,0,1-.64-2,1.61,1.61,0,0,1,1.07-1.26,4.3,4.3,0,0,1,2.35-.12,6.39,6.39,0,0,1,4,2,30.71,30.71,0,0,1,4.86,7.37,13.49,13.49,0,0,1,1,8.11,6.76,6.76,0,0,1-2.93,4.92,8.72,8.72,0,0,1-6.16.77,43.44,43.44,0,0,1-6.68-2.14,36.12,36.12,0,0,0-5.8-1.92c-.73-.13-1.14.06-1.23.56s.52,1.56,1.86,2.9a37.31,37.31,0,0,0,5.49,4.34,47.85,47.85,0,0,0,7.47,4.08,10.83,10.83,0,0,1,4,2.5,4,4,0,0,1,.59,3.31A3.8,3.8,0,0,1,108,300.31Z" transform="translate(-15.69 -19.81)"/><path class="cls-4" d="M112.4,234.49a4.32,4.32,0,0,1,2.34.22,6.39,6.39,0,0,1,3.69,2.59,25.34,25.34,0,0,1,3.24,8.69,20.17,20.17,0,0,1-.6,10.37q-2.26,6.94-7.28,9.54t-11.55.47a20.08,20.08,0,0,1-7.87-4.68,16.48,16.48,0,0,1-4.51-7.35,14.06,14.06,0,0,1,.19-8.45,8.81,8.81,0,0,1,4.28-5.4,8.71,8.71,0,0,1,6.93-.3A11.24,11.24,0,0,1,108,246q2.2,4.33,1.58,12.76,3.58-.66,5.08-5.29a15.24,15.24,0,0,0,.12-7.45,23.57,23.57,0,0,0-3.31-8.35,2.44,2.44,0,0,1-.34-2.09A1.61,1.61,0,0,1,112.4,234.49ZM97.66,254.17a13.94,13.94,0,0,0,6.32,3.92l.13,0a15.8,15.8,0,0,0-.77-7,5.74,5.74,0,0,0-3.56-3.65,3,3,0,0,0-2.24,0,2.55,2.55,0,0,0-1.37,1.64Q95.37,251.56,97.66,254.17Z" transform="translate(-15.69 -19.81)"/><path class="cls-4" d="M129.54,202a4.32,4.32,0,0,1,2.29.55,6.4,6.4,0,0,1,3.27,3.1,31.26,31.26,0,0,1,2.41,8.68,14.65,14.65,0,0,1-1.51,8.44,14.31,14.31,0,0,1-4,5,10.54,10.54,0,0,1-5.29,2.22q2.72,5.77.31,10.63a8.17,8.17,0,0,1-4.68,4.43,8,8,0,0,1-6.28-.63,9.22,9.22,0,0,1-4.33-3.93,5.29,5.29,0,0,1,.08-5q1.11-2.24,2.79-1.41c.29.14.79.44,1.49.9q2.15,1.3,2.46,1.45,1.87.93,2.67-.69a3.33,3.33,0,0,0-.27-3,12.88,12.88,0,0,0-2.93-3.7,21,21,0,0,0-5-3.37,12.26,12.26,0,0,0-4-1.31c-1.2-.13-1.94.07-2.2.61a1.44,1.44,0,0,0-.15,1.16,4.27,4.27,0,0,0,.85,1.19,4.64,4.64,0,0,1,1.09,1.78,3.51,3.51,0,0,1-.49,2.47,3,3,0,0,1-2,1.7,5.06,5.06,0,0,1-3.36-.66,7.24,7.24,0,0,1-4-4.4,7.81,7.81,0,0,1,.66-5.88,10,10,0,0,1,3.62-4.1,9.17,9.17,0,0,1,5.31-1.4,14.35,14.35,0,0,1-1.65-6.06,10.83,10.83,0,0,1,1-5.19,6.08,6.08,0,0,1,3-3.15,5.11,5.11,0,0,1,4.24.52,8.76,8.76,0,0,1,3.86,3.24,3.39,3.39,0,0,1,.32,3.34q-.68,1.37-1.48,1.59a4.1,4.1,0,0,1-2-.06,3.29,3.29,0,0,0-1.31-.18,1.08,1.08,0,0,0-.81.69q-.37.75.61,2.28a15.73,15.73,0,0,0,3,3.27,21.43,21.43,0,0,0,4.5,3,7.37,7.37,0,0,0,5.21.84,5.41,5.41,0,0,0,3.48-3,8.22,8.22,0,0,0,.62-5.39A36.79,36.79,0,0,0,128.2,205a2.45,2.45,0,0,1,0-2.11A1.61,1.61,0,0,1,129.54,202Z" transform="translate(-15.69 -19.81)"/><path class="cls-4" d="M125.79,190.56q2.76,2.11,4.36,3.22a45.43,45.43,0,0,0,6.7,4.06,7.59,7.59,0,0,0,4.3.89,4.55,4.55,0,0,0,2.93-2.06,6.56,6.56,0,0,0,.95-2.56,11.05,11.05,0,0,0,.11-3.31,2.28,2.28,0,0,1,.31-1.65,1.54,1.54,0,0,1,1.55-.57,4.57,4.57,0,0,1,2.15.87,6.56,6.56,0,0,1,1.81,1.9,5.18,5.18,0,0,1,.81,2.48,12.51,12.51,0,0,1-2.26,8.43A10.26,10.26,0,0,1,139.44,207q-6.28-.66-13.56-5.77-2.51-1.75-4.95-3.72l-1.56,2.22a3.87,3.87,0,0,1-2.24,1.87,3.43,3.43,0,0,1-2.41-.8q-3.19-2.23-1.39-4.79l2.27-3.24a67.48,67.48,0,0,1-9.37-11,31.47,31.47,0,0,1-4.89-10.59q-1.1-5,1.17-8.21a5.2,5.2,0,0,1,4.74-2.28A11.65,11.65,0,0,1,113.5,163q8.82,6.18,10.19,18.16l4.46-6.38a2.21,2.21,0,0,1,1.32-1,2.57,2.57,0,0,1,1.76.64q3.93,2.75-.58,9.18ZM107.7,171.74a37.26,37.26,0,0,0,4.52,6.14,96.78,96.78,0,0,0,7.3,7.45,23.74,23.74,0,0,0-3-9.6,19.35,19.35,0,0,0-5.4-6.28q-3.36-2.35-4.24-1.1Q106.3,169.19,107.7,171.74Z" transform="translate(-15.69 -19.81)"/><path class="cls-4" d="M181.63,147.12a4.32,4.32,0,0,1,1.94,1.33,6.38,6.38,0,0,1,2,4.06,29.42,29.42,0,0,1-.7,8.87,14.31,14.31,0,0,1-4.37,7.25q-10.42,9.61-23.94-5-2.07-2.25-4-4.69l-2,1.84a3.9,3.9,0,0,1-2.59,1.35,3.43,3.43,0,0,1-2.19-1.29q-2.64-2.86-.34-5l2.91-2.69a67.69,67.69,0,0,1-6.81-12.72A31.47,31.47,0,0,1,138.93,129q0-5.09,2.89-7.78a5.2,5.2,0,0,1,5.11-1.22,11.65,11.65,0,0,1,5.61,3.62q7.31,7.92,6.08,19.92l5.72-5.28a2.22,2.22,0,0,1,1.51-.73,2.55,2.55,0,0,1,1.58,1q3.25,3.52-2.52,8.85l-6.23,5.75q2.25,2.65,3.57,4.08,4.9,5.31,8.13,6.3a5.77,5.77,0,0,0,5.93-1.51,8.27,8.27,0,0,0,2.66-4.91,41.91,41.91,0,0,0,.31-7.66,2.44,2.44,0,0,1,.72-2A1.61,1.61,0,0,1,181.63,147.12ZM145,130.92a37,37,0,0,0,3.11,7,97,97,0,0,0,5.55,8.83,23.74,23.74,0,0,0-.88-10,19.3,19.3,0,0,0-3.94-7.29q-2.78-3-3.91-2Q144.21,128.13,145,130.92Z" transform="translate(-15.69 -19.81)"/><path class="cls-4" d="M204.73,132a4.31,4.31,0,0,1,1.76,1.56,6.39,6.39,0,0,1,1.42,4.28,25.4,25.4,0,0,1-2.57,8.91,20.14,20.14,0,0,1-6.65,8q-5.94,4.23-11.52,3.34t-9.57-6.49a20.1,20.1,0,0,1-3.54-8.44,16.52,16.52,0,0,1,.75-8.59,14.06,14.06,0,0,1,5.18-6.68,8.81,8.81,0,0,1,6.65-1.8,8.72,8.72,0,0,1,5.75,3.88,11.23,11.23,0,0,1,2,8.7q-.81,4.8-6.32,11.19,3.27,1.6,7.23-1.22a15.2,15.2,0,0,0,4.53-5.91,23.55,23.55,0,0,0,2.31-8.68,2.44,2.44,0,0,1,1-1.88A1.61,1.61,0,0,1,204.73,132Zm-23.56,7a14,14,0,0,0,2.75,6.92l.08.11a15.81,15.81,0,0,0,3.57-6.13,5.73,5.73,0,0,0-.7-5.05,3,3,0,0,0-1.82-1.3,2.56,2.56,0,0,0-2.08.5Q180.88,135.55,181.17,139Z" transform="translate(-15.69 -19.81)"/><path class="cls-4" d="M208.7,143.71a13.89,13.89,0,0,1-8.18-7.15,20.94,20.94,0,0,1-2.75-9.73,16.94,16.94,0,0,1,2-8.49,13.46,13.46,0,0,1,5.44-5.56,7.75,7.75,0,0,1,6.3-.85,8.13,8.13,0,0,1,4.63,4.09,9,9,0,0,1,1.22,5,3.86,3.86,0,0,1-2,3.38,3.33,3.33,0,0,1-2.16.46,2.08,2.08,0,0,1-1.53-1.15,5,5,0,0,1-.41-1q-.18-.62-.25-.89a6.16,6.16,0,0,0-.62-1.88,2,2,0,0,0-1.06-1,1.67,1.67,0,0,0-1.36.19,4.14,4.14,0,0,0-1.95,2.68,10.15,10.15,0,0,0-.12,4.45,16.42,16.42,0,0,0,1.82,5.1q3.84,7.09,10,3.74a12.42,12.42,0,0,0,4.49-4.61,25,25,0,0,0,3-8.14,2.43,2.43,0,0,1,1.19-1.75,1.61,1.61,0,0,1,1.65.05,4.32,4.32,0,0,1,1.55,1.77,6.74,6.74,0,0,1,.89,4.42,22.54,22.54,0,0,1-3.91,9.19,20.24,20.24,0,0,1-6.69,6.11Q213.86,145.3,208.7,143.71Z" transform="translate(-15.69 -19.81)"/><path class="cls-4" d="M244.17,97.67a4.56,4.56,0,0,1,2.26,2.75,54.67,54.67,0,0,1,1.68,6.64q.84,4.21,1.79,7.9a78.42,78.42,0,0,0,2.59,8,5.44,5.44,0,0,1,.33,3.92,4.64,4.64,0,0,1-2.88,2.31,4.23,4.23,0,0,1-3.54.07,5.23,5.23,0,0,1-2.23-3,70,70,0,0,1-2.32-8.93,64.49,64.49,0,0,0-1.72-6.93q-.39-1-1.11-.77t-1.59,3.08a34.32,34.32,0,0,0-1,6.93,49.82,49.82,0,0,0,.3,8.5,10.87,10.87,0,0,1-.1,4.75,4,4,0,0,1-2.56,2.19,3.49,3.49,0,0,1-3.51-.35,11.38,11.38,0,0,1-3-4q-1.48-2.93-3.7-8.85a120.65,120.65,0,0,1-5.81-21.65,67.08,67.08,0,0,1-.81-20.52q1.22-8.89,6.81-11a6.1,6.1,0,0,1,5.81.75,11.89,11.89,0,0,1,4.36,6,30.44,30.44,0,0,1,1.29,15.07q-1.18,8.5-6.28,21.19,1.08,3.46,2.42,7A39.93,39.93,0,0,1,233.13,108a19.86,19.86,0,0,1,3.33-6.93,10.19,10.19,0,0,1,4.15-3.27A4.58,4.58,0,0,1,244.17,97.67Zm-20.32-17.6a61,61,0,0,0,.64,10.08A129.32,129.32,0,0,0,227,103.36a49.57,49.57,0,0,0,2.77-12.85,25.78,25.78,0,0,0-1.18-11.14,9.37,9.37,0,0,0-1.65-3,1.55,1.55,0,0,0-1.72-.62Q224,76.18,223.84,80.07Z" transform="translate(-15.69 -19.81)"/><path class="cls-3" d="M180.8,423.26q1.12,1.06,2.12,2.13a7.62,7.62,0,0,1,1.45,2.1,10.68,10.68,0,0,1,.71,2.26,7.24,7.24,0,0,1,.11,2.2,4.43,4.43,0,0,1-.59,1.81,2.45,2.45,0,0,1-1.32,1.07,5,5,0,0,1-3.17-.16,5.05,5.05,0,0,1-2.41,4q-6.07.3-12,.74l-11.81.9q-5.88.46-11.82.87t-12,.64l-1.81,0-1.58.12A15.37,15.37,0,0,1,125,442a8.89,8.89,0,0,1-2.65-1.94,9.39,9.39,0,0,1-1.84-2.7,11.05,11.05,0,0,1-.63-1.89,7.51,7.51,0,0,1-.2-2,4.21,4.21,0,0,1,.37-1.67,2.09,2.09,0,0,1,1.09-1,9.57,9.57,0,0,1,3.08-.33,19.55,19.55,0,0,0,4.25-.44l3.64-.45a13.32,13.32,0,0,0-1.73-1.89,20.37,20.37,0,0,0-1.83-1.48q-.89-.63-1.58-1.1l-1.05-.72a7.16,7.16,0,0,1-1.46-1.36,8.27,8.27,0,0,1-.78-1.21,8.8,8.8,0,0,0-.62-1,2.79,2.79,0,0,0-.88-.8,38.47,38.47,0,0,1-8.36-2.69,9.6,9.6,0,0,1-5-4.83,4.81,4.81,0,0,1-.38-1.51,4,4,0,0,1,.16-1.58,4.39,4.39,0,0,1,.83-1.46,4,4,0,0,1,1.71-1.12,12.77,12.77,0,0,1,3.46-.66,41.92,41.92,0,0,1,4.24-.11q2.11.05,3.84.19t2.43.24q6.85.91,13.88,2.23T153,411.82q6.9,1.87,13.57,4.32a108.18,108.18,0,0,1,12.93,5.75l-.1,0Zm-44.62-.88,3,6.34,7-.74q3.55-.38,7-.6l6.55-.51,0-.67L154,424.43q-1.34-.07-2.92-.23l-2.95-.3Z" transform="translate(-15.69 -19.81)"/><path class="cls-3" d="M184.73,479.8a44.68,44.68,0,0,1-10.39,1.33,56.75,56.75,0,0,1-11.3-.92,43.1,43.1,0,0,1-10.4-3.24,21.13,21.13,0,0,1-7.67-5.75,17.48,17.48,0,0,1-1.61-2.45,9.65,9.65,0,0,1-4.64-.56,7.93,7.93,0,0,1-3.19-2.32,6.89,6.89,0,0,1-1.33-2.58,7.73,7.73,0,0,1-.24-2.84,7.08,7.08,0,0,1,.89-2.75,7.15,7.15,0,0,1,2-2.26l.46-.38A74.44,74.44,0,0,1,149,450.22q5.82-1.85,11.44-3.05t11.05-2.11q5.43-.91,10.49-2,.94-.38,2.21-.84t2.64-.9a18.7,18.7,0,0,1,2.78-.67,8.53,8.53,0,0,1,2.61-.05,10,10,0,0,1,2.58.74,14.28,14.28,0,0,1,2.36,1.3,19.11,19.11,0,0,1,2,1.59,15,15,0,0,1,1.54,1.59,13.92,13.92,0,0,1,2.46,4.5,21.22,21.22,0,0,1,1,5.07,29.49,29.49,0,0,1-.07,5.12q-.26,2.53-.69,4.71a13.84,13.84,0,0,1-2.23,5.19,17.18,17.18,0,0,1-3.91,4,26.78,26.78,0,0,1-5.52,3A63.17,63.17,0,0,1,184.73,479.8Zm-33-14.11,4.38,1.83q2.29.93,4.74,1.73a41.08,41.08,0,0,0,5,1.31,29.07,29.07,0,0,0,5.07.55,21,21,0,0,0,5-.5l0-.06a18.74,18.74,0,0,0,7.9-3,8,8,0,0,0,3.32-5,28.91,28.91,0,0,0,.34-7,32.6,32.6,0,0,0-6.37,1.29,52.19,52.19,0,0,1-5.11,1.42l-7.28,1.59L161.21,462q-.84.39-1.45.65a13.09,13.09,0,0,1-1.27.45l-1.43.44q-.77.24-1.82.61Z" transform="translate(-15.69 -19.81)"/><path class="cls-3" d="M223,467.65a20.2,20.2,0,0,1-3.75,6.13q-2.19,2.94-5.17,6.29t-6.25,6.54a4,4,0,0,0,.06,1.31,1.78,1.78,0,0,0,.8,1l.31.21q2.82-1.33,6.08-2.67t6.74-2.63q3.47-1.29,6.89-2.52l6.44-2.33,2.56-1A9.12,9.12,0,0,1,242,478a11.44,11.44,0,0,1,4,1.72,14,14,0,0,1,2,1.67,8.43,8.43,0,0,1,1.6,2.23,6.12,6.12,0,0,1,.64,2.57,4.2,4.2,0,0,1-1,2.65,8,8,0,0,1-2.49,1.78,13.7,13.7,0,0,1-4.33,1.16q-6,1.71-12.18,3.84t-12.41,4.36q-6.19,2.23-12.22,4.35T194,508.15l-.81.26q-1.58.46-3.19.89a16,16,0,0,1-3.26.53,13,13,0,0,1-3.21-.21,7.86,7.86,0,0,1-3-1.27,11.19,11.19,0,0,1-2.92-2.68,6.07,6.07,0,0,1-1.07-2.41,3.85,3.85,0,0,1,.18-2.05,5.71,5.71,0,0,1,.89-1.56q4.28-4.13,8.71-8.61l8.92-9.06,8.87-9q4.38-4.47,8.56-8.59a4.3,4.3,0,0,1,2-1.09,7.92,7.92,0,0,1,2.46-.22,10.25,10.25,0,0,1,2.56.49,8.51,8.51,0,0,1,2.18,1,3.86,3.86,0,0,1,1.31,1.4,1.45,1.45,0,0,1-.17,1.56Z" transform="translate(-15.69 -19.81)"/><path class="cls-3" d="M279.47,487.2a4,4,0,0,1,2.39,2,2.92,2.92,0,0,1-.11,2.5,7.64,7.64,0,0,1-1.94,2.64,13.43,13.43,0,0,1-3.24,2.17,15.2,15.2,0,0,1-4.12,1.29,11.66,11.66,0,0,1-4.52-.12q-2.08-.19-3.59-.3a20.61,20.61,0,0,0-2.65,0,8.59,8.59,0,0,0-2.08.36,8.79,8.79,0,0,0-1.85.84l-.6.34a31.56,31.56,0,0,0-3.21,2.06,18.77,18.77,0,0,0-2.57,2.29l-1.5,1.52a7.06,7.06,0,0,0,2.4,1.5,21,21,0,0,0,3.63,1,18.22,18.22,0,0,1,3.07.75q1.19.43.94,1.13a2.63,2.63,0,0,1-.54.6q-.94.85-2.1,1.75a14.94,14.94,0,0,1-2.56,1.58,16.3,16.3,0,0,1-3,1.11,11.07,11.07,0,0,1-3.31.36l.07,0q-1.51-.23-2-.26l-1-.08a12.72,12.72,0,0,1-1.27-.22q-.81-.17-2.67-.76-.91.55-2.43,1.55T236,516.9q-1.54,1.19-2.74,2.31a6.87,6.87,0,0,0-1.55,1.87q-.15.42.6,1a11.22,11.22,0,0,0,1.84,1.06q1.09.51,2.14.89l1.41.51q1.41.51,2.9.88t3.77.88a1.94,1.94,0,0,1,.55.91,1.45,1.45,0,0,1,0,.78c-.13.22-.28.44-.44.67a2.93,2.93,0,0,0-.37.7,2,2,0,0,0,.65,2.38.61.61,0,0,1,0,.47,2.75,2.75,0,0,1-1.22,1.19,19.42,19.42,0,0,1-2.48,1.25,18.24,18.24,0,0,1-3.23,1,14.18,14.18,0,0,1-3.43.35l.07,0q-3.68-.37-6.38-.91a38.76,38.76,0,0,1-5.52-1.55l-3.2-1.15a23.52,23.52,0,0,1-4-1.87,10.4,10.4,0,0,1-3.05-2.65,3.12,3.12,0,0,1-.33-3.38,2.35,2.35,0,0,1,.37-.58,83,83,0,0,1,6.51-9.45,84.7,84.7,0,0,1,7.6-8.3q4.13-4,8.95-7.74T246,490.62a8.89,8.89,0,0,0,2.06-2.08q.88-1.23,1.68-2.45a11.72,11.72,0,0,1,1.71-2.09,3.48,3.48,0,0,1,2.14-1q6.19,0,12.16.53a41.16,41.16,0,0,1,10.33,2.1q.84.3,1.7.69t1.65.83Z" transform="translate(-15.69 -19.81)"/><path class="cls-3" d="M276.57,504a57.69,57.69,0,0,1,3.36-4.69,40.34,40.34,0,0,1,4.26-4.62,23.28,23.28,0,0,1,4.6-3.38,7.39,7.39,0,0,1,4.41-1,5,5,0,0,1,3,1.47q.23,2.58.37,4.63t.12,3.89q0,1.84-.18,3.51t-.44,3.52q-.2,1.1-.44,2.47t-.55,2.83l.58.22q1.24-1.66,2.77-3.44t3-3.6q1.49-1.82,2.9-3.61a35.17,35.17,0,0,0,2.43-3.48,16.3,16.3,0,0,1,3.58-3.69,20.3,20.3,0,0,1,4.23-2.44,19.39,19.39,0,0,1,4.28-1.27,13.41,13.41,0,0,1,3.74-.17,5.35,5.35,0,0,1,2.46.81,1.43,1.43,0,0,1,.73,1.51,1.45,1.45,0,0,1-.27.68l-.49.66a2.25,2.25,0,0,0-.81,1.49q-.15,1-.37,2.21a13.82,13.82,0,0,1-.85,2.8,10.63,10.63,0,0,1-2.25,3.24,70.18,70.18,0,0,0-5,6.08q-2.76,3.71-5.69,7.88t-5.82,8.39q-2.9,4.22-5.4,7.69t-4.47,5.8q-2,2.33-3,2.59a41.58,41.58,0,0,1-4.5,1.47,9.17,9.17,0,0,1-3.22.19,5.54,5.54,0,0,1-1.26-.15q-.66-.15-1.46-.39-1-.2-1.35-1.66a14.12,14.12,0,0,1-.22-3.6q.1-2.13.47-4.69t.72-4.92q.35-2.37.54-4.34a11.59,11.59,0,0,0,0-3q-3.11,4.76-5,7.54t-3.22,4.44a22.87,22.87,0,0,1-2.13,2.46q-.85.81-1.6,1.47l-1.42,1.26a7.45,7.45,0,0,1-2,1.88,11.49,11.49,0,0,1-2.47,1.22,11.91,11.91,0,0,1-2.63.6,10.89,10.89,0,0,1-2.45,0,4.66,4.66,0,0,1-2.17-.74,1.43,1.43,0,0,1-.65-1.54,2.87,2.87,0,0,1,.69-1.42q1.26-3.09,3.71-7.73t5.4-9.61q2.94-5,5.93-9.7T276.5,504Z" transform="translate(-15.69 -19.81)"/><path class="cls-3" d="M327.92,544.7a11.64,11.64,0,0,1-3.57,4.14,7.36,7.36,0,0,1-3.23,1.05,7.92,7.92,0,0,1-4.2-.72,3,3,0,0,1-1.64-3,11.74,11.74,0,0,1,1.29-4.79q2.44-6.81,4-11.13t2.6-7.19q1.06-2.87,1.78-4.71t1.5-3.64q.79-1.81,1.85-4.08t2.86-6q-.52.11-1,.17c-.32,0-.66.08-1,.1a7.32,7.32,0,0,1-3.86-.71,2.83,2.83,0,0,1-1.59-2.79,7.63,7.63,0,0,1,1.44-4.73,25.64,25.64,0,0,1,4.31-4.3A37.51,37.51,0,0,1,335,489.6q3.54-1.52,7.65-2.89t8.36-2.37a45.19,45.19,0,0,1,7.6-1.2,5.89,5.89,0,0,1,2.07.25,6.32,6.32,0,0,1,1.81.87,4.9,4.9,0,0,1,1.28,1.31,3.09,3.09,0,0,1,.54,1.5q-.06,1.5-2.08,2.82a4.4,4.4,0,0,0-1.81,2.24q-.59,1.49-1.21,3a12.47,12.47,0,0,1-1.59,2.83,4.33,4.33,0,0,1-2.82,1.63,6.3,6.3,0,0,1-1.83.71l-1.85.37q-.89.17-1.55.35a1.23,1.23,0,0,0-.86.65l-3.39,7.24q-2.06,4.39-4.38,9.47t-4.65,10q-2.33,4.89-4.51,9.17T327.92,544.7Z" transform="translate(-15.69 -19.81)"/><path class="cls-3" d="M372,478.75a3.89,3.89,0,0,1,3.37.64,4.81,4.81,0,0,1,2,3,9.74,9.74,0,0,1-.2,3.41q-.43,2.23-1.25,5.18t-1.76,6.36q-.94,3.4-1.69,6.92t-1.2,6.87a24.49,24.49,0,0,0-.1,6.2q.28,1.7,1.37,1.42.8-.21,2.06-2.19a46.13,46.13,0,0,0,2.71-5.06q1.45-3.07,3-6.88t3.1-7.74q1.49-3.93,2.83-7.6t2.31-6.46l.94-3.1a16.78,16.78,0,0,1,1.18-2.93,10.33,10.33,0,0,1,1.67-2.36,4.73,4.73,0,0,1,2.27-1.36,5.06,5.06,0,0,1,2.32,0,8.23,8.23,0,0,1,2.08-2.43,6.82,6.82,0,0,1,2.39-1.19,4,4,0,0,1,2.83.2,3.1,3.1,0,0,1,1.56,2.45l.15.58a27.58,27.58,0,0,1-1,6.67q-1.18,5.16-2.91,12.82t-3.57,17.16q-1.83,9.5-3,19.75a5.64,5.64,0,0,1-.62,2.82,9.1,9.1,0,0,1-1.83,2.48,13.64,13.64,0,0,1-2.51,1.92,10.46,10.46,0,0,1-2.75,1.17q-2.32.6-3.39-.13a4.36,4.36,0,0,1-1.49-2.94,5.32,5.32,0,0,1-.13-.66c0-.2,0-.42-.06-.68l-.72.19a4.07,4.07,0,0,1-.84,2.88,10.93,10.93,0,0,1-2.53,2.46,18.75,18.75,0,0,1-3.12,1.81,16.91,16.91,0,0,1-2.53,1,16.64,16.64,0,0,1-5.38.54,11.22,11.22,0,0,1-4.58-1.29,10,10,0,0,1-3.43-3.13,13.23,13.23,0,0,1-2-5,36.82,36.82,0,0,1-.54-10.2A92.48,92.48,0,0,1,358.57,511q1.15-5.73,2.73-11.27t3-10.06a30.29,30.29,0,0,1,1-3.31,19.54,19.54,0,0,1,1.54-3.29,12,12,0,0,1,2.19-2.72A6.92,6.92,0,0,1,372,478.75Z" transform="translate(-15.69 -19.81)"/><path class="cls-3" d="M425.63,519.54a5.14,5.14,0,0,1-1.06,3.85,10.61,10.61,0,0,1-3.2,2.83,11.43,11.43,0,0,1-2.42,1,8.48,8.48,0,0,1-2.32.39,4.69,4.69,0,0,1-1.93-.35,2.79,2.79,0,0,1-1.34-1.21l-.25-.89a23.48,23.48,0,0,1-1.36-6.33q-.56-4.64-.84-10.81t-.23-13.19q.06-7,.56-13.47a103.42,103.42,0,0,1,1.51-11.6,23.93,23.93,0,0,1,2.56-7.68,25.13,25.13,0,0,1,2.76-3.22q1.77-1.79,3.58-3.44t3.26-2.87a18,18,0,0,1,2-1.52q4.4-2.54,7.71-1.29a10.06,10.06,0,0,1,5.3,5,25.63,25.63,0,0,1,2.36,8.6,40.83,40.83,0,0,1-.19,10.46,42.15,42.15,0,0,1-2.95,10.53,27.37,27.37,0,0,1-5.84,8.8l1.57,1.08,0-.06q1.53,1,3.53,2.15t3.94,2.43a37.79,37.79,0,0,1,3.55,2.65,9.56,9.56,0,0,1,2.36,2.82,4,4,0,0,1,.4,2,6.87,6.87,0,0,1-1.43,3.8,4.78,4.78,0,0,1-1.33,1.2,1.54,1.54,0,0,1-.86.23,4.52,4.52,0,0,1-.86-.15q-.46-.12-1-.22a4.36,4.36,0,0,0-1.37,0,9.06,9.06,0,0,1-1.89,1.52,3.58,3.58,0,0,1-3.67.13,16.37,16.37,0,0,1-3.6-2.67q-1.81-1.72-3.68-3.62a13.41,13.41,0,0,0-3.76-2.79q0,3.08.07,5.74t.12,4.93Zm-1.24-50.07q-.1,1.78-.13,2.84c0,.7,0,1.29-.06,1.76s0,.88,0,1.22,0,.72,0,1.12q0,2.51.07,4l.14,2.34a12.9,12.9,0,0,0,.08,1.33l.58.1,1.26-2.45q1.08-1.57,1.92-2.87a13.5,13.5,0,0,0,1.35-2.67,13.35,13.35,0,0,0,.71-3,21.41,21.41,0,0,0,0-4.07,3.79,3.79,0,0,1-.24-2.06,3.91,3.91,0,0,0-.31-2.19,2.56,2.56,0,0,0-1-.86,1.54,1.54,0,0,0-1.62.11,3.48,3.48,0,0,0-1.5,1.73,13.11,13.11,0,0,0-.71,2.22l.07,0-.47,1.13Z" transform="translate(-15.69 -19.81)"/><path class="cls-3" d="M455.05,420.13a4,4,0,0,1,2.78-1.36,2.91,2.91,0,0,1,2.24,1.13,7.62,7.62,0,0,1,1.6,2.86,13.37,13.37,0,0,1,.64,3.85,15.27,15.27,0,0,1-.52,4.29,11.67,11.67,0,0,1-2,4.07q-1,1.81-1.75,3.14a20.69,20.69,0,0,0-1.13,2.39,8.2,8.2,0,0,0-.52,4.08l.06.69A31.83,31.83,0,0,0,457,449a18.82,18.82,0,0,0,1,3.29l.77,2a7.05,7.05,0,0,0,2.35-1.57,21.14,21.14,0,0,0,2.36-2.92,18.23,18.23,0,0,1,1.94-2.49q.89-.91,1.42-.39a2.64,2.64,0,0,1,.33.73q.39,1.21.73,2.63a14.82,14.82,0,0,1,.39,3,16.26,16.26,0,0,1-.22,3.17,11.1,11.1,0,0,1-1,3.16l.05-.05q-.83,1.28-1.08,1.76t-.49.88a12.75,12.75,0,0,1-.72,1.07q-.49.67-1.79,2.11.12,1.06.41,2.85t.74,3.69q.45,1.89,1,3.45a6.87,6.87,0,0,0,1.06,2.18c.21.21.59.16,1.13-.15a11.25,11.25,0,0,0,1.73-1.24q.91-.78,1.69-1.58l1-1.07q1-1.07,2-2.28t2.36-3.07a1.93,1.93,0,0,1,1.06-.12,1.44,1.44,0,0,1,.69.36q.22.31.43.68a3,3,0,0,0,.48.63,2,2,0,0,0,2.44.39.62.62,0,0,1,.43.2,2.75,2.75,0,0,1,.58,1.6,19.61,19.61,0,0,1,.12,2.77,18.3,18.3,0,0,1-.4,3.36,14.13,14.13,0,0,1-1.09,3.27l.05-.05q-1.85,3.2-3.46,5.44a38.17,38.17,0,0,1-3.69,4.39l-2.37,2.44a23.47,23.47,0,0,1-3.34,2.85,10.4,10.4,0,0,1-3.67,1.69,3.12,3.12,0,0,1-3.21-1.09,2.42,2.42,0,0,1-.38-.57,83.21,83.21,0,0,1-5.93-9.82,84.74,84.74,0,0,1-4.44-10.34q-1.9-5.39-3.37-11.34T444.38,452a8.92,8.92,0,0,0-1-2.73q-.76-1.31-1.54-2.54a11.66,11.66,0,0,1-1.2-2.41,3.47,3.47,0,0,1,0-2.35q2.56-5.64,5.49-10.86a41.27,41.27,0,0,1,6.16-8.55c.42-.43.86-.85,1.33-1.26s.95-.8,1.44-1.16Z" transform="translate(-15.69 -19.81)"/><path class="cls-3" d="M500.59,449.94a5.14,5.14,0,0,1,1.12,3.83,10.6,10.6,0,0,1-1.23,4.09A11.46,11.46,0,0,1,499,460a8.5,8.5,0,0,1-1.77,1.55,4.69,4.69,0,0,1-1.83.71,2.78,2.78,0,0,1-1.78-.32l-.68-.62a23.42,23.42,0,0,1-4.49-4.67q-2.91-3.65-6.4-8.76t-7.13-11.1q-3.65-6-6.61-11.75a103.51,103.51,0,0,1-4.82-10.66,23.9,23.9,0,0,1-1.86-7.88,24.69,24.69,0,0,1,.65-4.19q.56-2.46,1.23-4.81t1.26-4.16a17.9,17.9,0,0,1,.87-2.33q2.41-4.47,5.87-5.15a10.05,10.05,0,0,1,7.14,1.47,25.59,25.59,0,0,1,6.54,6.07,40.77,40.77,0,0,1,5.34,9,42.2,42.2,0,0,1,3,10.51,27.37,27.37,0,0,1-.34,10.56l1.9.09-.06,0q1.84.06,4.13,0t4.63,0a37.36,37.36,0,0,1,4.42.39,9.54,9.54,0,0,1,3.49,1.16,4,4,0,0,1,1.38,1.46,6.9,6.9,0,0,1,.78,4,4.76,4.76,0,0,1-.5,1.72,1.51,1.51,0,0,1-.61.65,4.38,4.38,0,0,1-.81.33q-.46.14-1,.35a4.44,4.44,0,0,0-1.16.73,9,9,0,0,1-.81,2.28,3.59,3.59,0,0,1-3.05,2,16.42,16.42,0,0,1-4.47-.37q-2.44-.51-5-1.14a13.42,13.42,0,0,0-4.67-.39q1.66,2.59,3.08,4.84t2.7,4.13ZM473.18,408q.86,1.57,1.38,2.48l.87,1.53c.23.41.44.76.62,1.05l.59,1q1.31,2.15,2.17,3.38l1.35,1.91a13.05,13.05,0,0,0,.77,1.09l.54-.22-.22-2.75q.09-1.9.12-3.46a12.84,12.84,0,0,0-1.26-5.94,21.6,21.6,0,0,0-2.12-3.47,3.79,3.79,0,0,1-1.29-1.63,3.91,3.91,0,0,0-1.42-1.7A2.59,2.59,0,0,0,474,401a1.54,1.54,0,0,0-1.32.95,3.47,3.47,0,0,0-.37,2.26,13.13,13.13,0,0,0,.57,2.26l0-.07.2,1.21Z" transform="translate(-15.69 -19.81)"/><path class="cls-3" d="M524.93,404.61q-1.31,5.22-4.44,7.67a6.88,6.88,0,0,1-6.49,1.45,7.62,7.62,0,0,1-2.18-1.13,8.08,8.08,0,0,1-1.78-1.8,6.48,6.48,0,0,1-1-2.3,5.39,5.39,0,0,1,0-2.57,19,19,0,0,1,1.81-4.44,19.12,19.12,0,0,0,1.83-4.51,7.47,7.47,0,0,0,.24-2.79,19.89,19.89,0,0,0-1.13-6.06,3.79,3.79,0,0,0-2-2.35,3.36,3.36,0,0,0-2.53.25,20.66,20.66,0,0,0-2.71,1.59q-1.74,1.1-3.49,2.09a19.53,19.53,0,0,1-3.56,1.57,15.43,15.43,0,0,1-3.73.72,10.43,10.43,0,0,1-4-.54,14.18,14.18,0,0,1-3.4-1.47,30.09,30.09,0,0,1-5.4-4.1,30.45,30.45,0,0,1-4-4.62,24.36,24.36,0,0,1-2.6-4.82,31,31,0,0,1-1.47-4.72,59.19,59.19,0,0,1-1-7.7,27,27,0,0,1,.86-8.45,26.06,26.06,0,0,1,.8-2.57q.49-1.34,1.07-2.73a6.4,6.4,0,0,1,1.82-2.47q1.11-.88,2.32-1.73l.74-.51a3.78,3.78,0,0,1,2.92-.27,3.54,3.54,0,0,1,1.58.9,5.21,5.21,0,0,1,1.14,1.6,6.47,6.47,0,0,1,.55,1.95,6.79,6.79,0,0,1,0,2,4.79,4.79,0,0,1,2.74,2.42q1.09,1.93.56,6.19c-.21.62-.39,1.19-.55,1.71s-.3,1.05-.44,1.58q-1,4.06-.12,6.29t5,3.49a3.7,3.7,0,0,0,3-.58q1.68-1,3.79-2.2a21.38,21.38,0,0,1,4.69-1.94,10.21,10.21,0,0,1,5.8.23,13.94,13.94,0,0,1,3.65,1.88,24.59,24.59,0,0,1,4.16,3.67,34.12,34.12,0,0,1,3.92,5.23,28.71,28.71,0,0,1,3,6.68,31.54,31.54,0,0,1,.28,17.22Z" transform="translate(-15.69 -19.81)"/><path class="cls-2" d="M377.5,426.61s26,11,29.21,1.93S423.6,379.81,434,367.79s29.24-38.66,31.19-45.81,9.88-34.44,16.64-44.18,21.7-27.29,23-45.48,4.06-28.56,6.34-31.68,16.4-23.88,14-29.73-11.64-10.23-15.81-7.8-29,13.64-34.87,22.42-12.18,22.42-14.13,26.31S430.59,260.09,424.74,265,397,280.08,370.16,306.53c-41.42,40.79-54.09,68.57-62.86,95.86" transform="translate(-15.69 -19.81)"/></svg>