<?xml version="1.0" standalone="no"?>
<!DOCTYPE svg PUBLIC "-//W3C//DTD SVG 20010904//EN"
 "http://www.w3.org/TR/2001/REC-SVG-20010904/DTD/svg10.dtd">
<svg version="1.0" xmlns="http://www.w3.org/2000/svg"
 width="1128.000000pt" height="1128.000000pt" viewBox="0 0 1128.000000 1128.000000"
 preserveAspectRatio="xMidYMid meet">
<metadata>
Created by potrace 1.11, written by Peter Selinger 2001-2013
</metadata>
<g transform="translate(0.000000,1128.000000) scale(0.100000,-0.100000)"
fill="#000000" stroke="none">
<path d="M4139 10097 c-85 -57 -113 -146 -113 -357 0 -206 31 -370 116 -627
l40 -122 -33 -71 c-54 -118 -146 -178 -222 -146 -101 42 -162 245 -95 313 33
32 52 22 75 -40 15 -44 22 -52 47 -55 93 -11 104 139 16 223 -23 22 -42 29
-83 33 -65 5 -118 -18 -167 -74 -56 -65 -74 -117 -75 -219 0 -81 3 -97 33
-159 17 -37 32 -76 32 -85 0 -56 -91 -185 -152 -217 -27 -14 -89 -19 -101 -8
-3 3 10 26 29 52 20 25 47 68 62 96 85 164 -38 369 -197 326 -57 -15 -132 -86
-162 -153 -35 -77 -33 -191 4 -272 15 -32 39 -74 54 -93 22 -29 25 -40 19 -80
-18 -132 -124 -186 -228 -114 -25 17 -75 63 -111 102 l-66 72 88 84 c49 46 94
97 101 114 15 35 7 73 -20 100 -25 25 -43 18 -117 -53 l-53 -50 0 75 c0 98
-28 190 -84 270 -52 77 -108 118 -168 125 -40 5 -49 2 -81 -26 -44 -39 -61
-86 -59 -167 1 -105 47 -240 132 -385 l49 -83 -40 -43 c-21 -23 -39 -50 -39
-59 0 -17 62 -84 78 -84 5 0 26 14 47 30 21 17 42 29 45 28 4 -2 28 -28 54
-58 59 -69 148 -144 206 -172 26 -13 71 -24 108 -26 52 -4 71 0 116 22 84 41
149 127 164 218 l7 41 70 1 c58 1 82 7 137 34 81 40 156 118 195 203 23 51 31
59 48 54 130 -41 291 26 374 155 l37 57 28 -23 c34 -30 77 -31 111 -1 l27 22
1 195 c2 161 5 202 19 233 32 70 41 54 98 -183 40 -165 72 -200 150 -165 64
29 68 54 27 182 -19 59 -47 164 -62 233 -32 146 -39 167 -67 198 -27 27 -57
28 -109 2 -77 -40 -129 -142 -152 -302 l-13 -93 -22 63 -21 62 38 103 c95 252
117 461 66 612 -45 132 -150 190 -236 132z m94 -150 c59 -90 61 -320 5 -487
l-12 -35 -8 35 c-39 172 -63 432 -44 488 10 29 40 28 59 -1z m-1574 -1052 c66
-72 106 -188 99 -290 l-3 -50 -41 65 c-85 134 -144 271 -131 304 10 27 33 18
76 -29z m766 -115 c8 -16 15 -43 15 -60 0 -34 -39 -119 -64 -139 -14 -12 -19
-7 -38 35 -32 73 -35 133 -8 167 30 38 74 37 95 -3z"/>
<path d="M6590 10029 c-58 -3 -132 -14 -165 -23 -195 -57 -335 -204 -441 -463
-24 -60 -44 -114 -44 -121 0 -9 -7 -11 -19 -7 -43 13 -218 22 -295 14 -144
-15 -215 -50 -322 -161 -70 -72 -109 -134 -135 -213 -8 -27 -14 -143 -18 -362
l-6 -322 -53 35 c-76 52 -167 86 -242 91 -61 5 -70 3 -142 -34 -185 -97 -327
-213 -352 -291 -26 -77 -46 -199 -46 -275 0 -80 17 -127 69 -191 17 -21 31
-40 31 -41 0 -2 -22 8 -50 21 -55 26 -119 43 -166 44 -63 0 -226 -100 -360
-223 -76 -69 -85 -90 -91 -221 -10 -214 43 -391 185 -620 l24 -39 84 84 83 83
126 21 125 20 -354 -355 c-349 -349 -376 -382 -362 -427 3 -10 468 -480 1034
-1046 1016 -1016 1028 -1027 1067 -1027 38 0 47 8 363 322 l323 323 -76 -110
c-89 -128 -167 -251 -231 -368 -40 -73 -77 -114 -342 -381 -163 -164 -311
-304 -329 -312 -42 -18 -85 -18 -131 1 -25 11 -204 182 -574 553 -296 295
-538 532 -538 527 0 -34 43 -503 56 -610 21 -181 51 -356 76 -448 22 -85 53
-133 212 -337 212 -271 252 -365 263 -619 l6 -143 -24 7 c-112 35 -327 147
-469 243 -255 173 -502 433 -673 709 -259 419 -445 1007 -487 1540 -7 76 -15
162 -18 191 l-7 53 -560 -522 c-308 -286 -569 -529 -580 -540 -20 -18 -24 -17
-220 46 -464 147 -588 185 -593 180 -15 -15 53 -379 114 -615 146 -562 416
-1154 731 -1607 245 -354 575 -699 903 -948 800 -606 1795 -905 3010 -905
1782 0 3089 620 3905 1850 332 500 544 993 790 1835 37 127 70 235 74 241 4 7
96 -17 266 -67 142 -43 261 -76 263 -74 2 2 -177 354 -398 782 -530 1024 -682
1318 -684 1320 0 1 -246 -171 -546 -382 -300 -211 -547 -382 -549 -380 -5 5
56 185 107 315 67 172 99 230 225 406 190 264 265 397 323 569 28 86 38 136
54 299 22 214 49 372 80 462 11 32 56 112 99 178 144 221 221 384 221 471 0
35 -7 50 -40 88 -52 59 -146 107 -210 107 -39 0 -73 -13 -201 -80 l-154 -79
-975 974 c-965 965 -976 975 -1015 975 -39 0 -49 -9 -728 -687 -379 -379 -686
-679 -683 -668 10 36 26 149 26 185 0 31 11 47 104 139 96 96 108 104 177 127
114 39 251 118 312 183 64 67 125 170 179 300 29 69 53 109 84 141 24 25 44
51 44 57 0 20 -120 142 -164 168 -97 57 -190 73 -356 64z m-115 -137 l30 -15
-74 -13 c-103 -18 -212 -73 -281 -143 l-54 -56 31 45 c47 68 117 149 143 167
62 44 139 49 205 15z m-752 -810 c34 -17 87 -53 117 -81 51 -47 53 -50 29 -51
-110 -1 -347 -142 -520 -307 -91 -87 -96 -85 -85 35 19 217 96 366 219 423 62
29 157 22 240 -19z m-707 -896 c38 -20 87 -52 109 -71 l40 -35 -56 0 c-127 0
-252 -43 -336 -114 -54 -47 -117 -148 -145 -232 -21 -64 -22 -65 -34 -41 -8
14 -19 56 -25 95 -22 130 18 256 110 349 72 74 121 95 202 90 51 -3 81 -12
135 -41z m324 34 c0 -5 -4 -10 -10 -10 -5 0 -10 5 -10 10 0 6 5 10 10 10 6 0
10 -4 10 -10z m240 -175 c-85 -85 -156 -153 -157 -151 -2 2 -12 39 -23 82
l-19 79 67 67 66 67 100 4 c56 1 105 4 111 5 5 1 -60 -68 -145 -153z m1028
105 c125 -16 245 -54 377 -120 219 -109 384 -267 503 -482 l32 -57 -33 -5
c-17 -3 -52 -8 -76 -11 -25 -3 -130 -31 -234 -61 -103 -30 -194 -54 -202 -52
-7 2 -157 127 -331 278 -397 343 -356 311 -394 304 -20 -4 -29 -11 -26 -20 3
-7 90 -127 195 -266 147 -196 196 -269 216 -321 l25 -67 -22 -9 c-13 -5 -104
-32 -203 -60 -99 -28 -391 -125 -650 -215 -275 -96 -474 -160 -479 -155 -16
15 -11 276 8 372 118 611 682 1023 1294 947z m-2248 -589 c30 -8 19 -16 -34
-26 -91 -16 -203 -97 -253 -182 -14 -24 -33 -70 -43 -101 -18 -57 -18 -57 -29
-29 -15 39 -14 151 2 190 29 67 95 123 177 148 31 9 146 9 180 0z m452 -200
l67 -17 -69 -69 -70 -69 0 71 c0 39 -3 78 -6 87 -7 19 -6 19 78 -3z m2771 -43
c30 -114 38 -159 44 -267 29 -515 -299 -993 -797 -1163 -119 -40 -233 -58
-372 -58 -498 0 -931 309 -1100 785 -14 39 -28 87 -32 107 -7 36 -6 37 31 47
21 5 243 58 493 116 250 59 542 132 648 162 107 30 198 51 202 47 5 -5 14 -37
21 -71 11 -54 9 -102 -14 -380 -15 -175 -27 -322 -27 -327 0 -9 50 1 63 13 4
4 67 200 141 436 l134 430 217 62 c120 35 241 76 269 92 28 16 54 29 57 30 3
0 13 -27 22 -61z m906 -715 c-150 -225 -251 -364 -297 -408 -17 -16 -102 -75
-189 -130 -87 -55 -205 -133 -263 -173 -104 -73 -102 -71 385 417 269 270 491
491 493 491 1 0 -57 -89 -129 -197z m-938 -468 c37 -20 69 -70 69 -110 0 -62
-63 -125 -125 -125 -62 0 -125 63 -125 125 0 63 63 123 128 125 13 0 36 -7 53
-15z m1412 -1478 c-15 -82 -88 -311 -143 -451 -202 -514 -508 -950 -905 -1290
-44 -37 -88 -72 -98 -78 -17 -9 -18 -7 -12 24 20 93 229 637 330 860 99 217
158 314 296 488 71 89 188 244 260 345 l130 183 74 -25 74 -25 -6 -31z m406
-101 c12 -13 25 -41 28 -62 4 -24 17 -49 34 -65 36 -33 46 -88 29 -159 -19
-80 -24 -165 -10 -190 16 -30 69 -60 107 -60 18 0 60 16 100 39 130 75 202 77
303 9 149 -99 250 -299 250 -494 0 -69 -21 -179 -44 -235 -47 -111 -150 -160
-233 -109 -76 46 -84 107 -29 227 28 63 36 93 36 139 0 107 -30 174 -76 174
-13 0 -63 -23 -111 -50 -48 -28 -104 -55 -123 -60 -113 -32 -220 8 -336 125
-116 117 -166 248 -167 445 -1 151 40 264 115 319 52 38 95 41 127 7z m-142
-801 c125 -53 263 -251 314 -453 16 -64 20 -106 17 -183 -2 -82 0 -99 12 -100
8 -1 71 -3 140 -4 204 -4 254 -30 248 -129 -3 -47 -6 -52 -37 -67 -20 -9 -41
-30 -50 -50 -28 -59 -58 -66 -186 -41 -114 23 -155 27 -155 15 0 -4 43 -71 95
-149 104 -155 111 -176 75 -249 -34 -72 -83 -111 -124 -101 -94 23 -455 566
-592 889 -59 139 -72 208 -55 288 23 112 62 234 87 272 48 73 128 96 211 62z
m-6869 -425 c445 -75 855 -214 964 -327 89 -91 90 -213 3 -213 -24 0 -35 -5
-39 -18 -16 -49 -39 -59 -158 -66 -62 -4 -227 -16 -366 -26 -139 -11 -326 -23
-416 -26 -157 -7 -165 -6 -194 15 -36 25 -72 95 -72 137 0 56 16 66 131 76 57
5 106 12 109 15 3 3 -15 22 -40 42 -24 20 -69 61 -100 92 -31 32 -68 59 -85
63 -74 17 -164 59 -194 90 -59 61 -58 135 3 162 57 25 252 18 454 -16z m6525
-238 c44 -48 61 -160 36 -232 -7 -18 -29 -63 -51 -99 -53 -91 -62 -128 -49
-212 6 -38 18 -87 27 -109 14 -34 19 -38 35 -29 10 5 42 39 71 75 29 35 56 63
62 61 31 -10 46 -161 22 -227 -10 -30 -44 -87 -81 -136 -19 -26 41 -254 66
-254 13 0 122 106 154 149 38 52 50 56 77 26 13 -13 34 -25 48 -27 24 -3 25
-7 28 -72 4 -84 -12 -133 -69 -218 -101 -150 -256 -277 -318 -261 -12 3 -38
30 -58 62 -142 220 -225 436 -288 753 -20 99 -36 149 -61 194 -19 33 -34 73
-34 89 0 37 118 264 181 348 57 75 130 137 164 137 12 0 29 -8 38 -18z m-5288
-440 c63 -31 105 -74 137 -140 32 -64 33 -72 33 -182 0 -148 -18 -209 -80
-278 -57 -63 -123 -102 -240 -141 -222 -73 -507 -58 -711 39 -67 32 -142 93
-163 134 -11 20 -22 26 -48 26 -47 0 -110 35 -133 73 -28 45 -26 114 3 158 54
82 328 174 742 248 94 17 197 40 230 51 115 41 168 43 230 12z m4802 -173 c91
-44 135 -158 135 -349 0 -184 -45 -335 -135 -453 -21 -26 -37 -51 -37 -55 0
-4 34 -27 76 -51 174 -101 232 -160 220 -226 -11 -57 -41 -85 -91 -85 -27 0
-58 -8 -80 -21 -31 -19 -39 -20 -67 -8 -17 7 -66 45 -108 85 -43 39 -88 77
-100 84 l-23 12 6 -178 7 -179 -25 -36 c-42 -64 -166 -105 -208 -70 -71 58
-91 758 -31 1104 24 144 46 189 131 273 102 101 156 144 200 160 53 19 80 17
130 -7z m-4291 -275 c19 -9 37 -26 40 -39 12 -46 -78 -175 -229 -332 -63 -65
-78 -85 -72 -102 3 -12 11 -21 17 -21 6 0 73 24 147 54 235 94 442 166 478
166 69 0 159 -55 193 -118 10 -20 19 -31 20 -25 0 7 13 19 29 27 25 13 52 14
182 6 168 -11 253 -27 340 -66 72 -32 89 -61 66 -108 -9 -19 -35 -47 -59 -64
-71 -48 -106 -55 -239 -47 -118 7 -120 7 -176 -21 -57 -29 -153 -108 -153
-125 0 -14 61 -38 127 -51 30 -6 57 -18 60 -26 7 -18 -37 -56 -102 -87 -55
-27 -149 -33 -218 -14 -36 10 -42 8 -100 -30 -73 -47 -137 -104 -137 -120 0
-17 109 -66 189 -86 l69 -17 -2 -65 -1 -66 -55 -26 c-103 -47 -237 -38 -422
29 -99 36 -178 96 -178 135 0 13 32 73 72 132 93 139 286 335 458 462 69 52
127 96 130 98 20 18 -242 -66 -606 -195 -399 -141 -519 -176 -589 -170 -91 8
-165 75 -165 149 0 31 32 65 373 406 l372 373 54 0 c29 0 68 -7 87 -16z m3676
-121 c30 -27 22 -93 -42 -381 -70 -316 -101 -480 -130 -692 -24 -169 -33 -190
-102 -240 -79 -58 -148 -48 -164 24 l-7 31 -13 -31 c-32 -76 -156 -144 -265
-144 -134 0 -206 74 -228 235 -19 133 13 365 84 615 67 232 85 286 114 333 50
77 128 101 176 52 37 -36 33 -85 -31 -332 -51 -195 -57 -229 -58 -327 -1 -75
3 -110 11 -113 17 -6 48 31 86 106 44 84 182 430 232 581 21 63 47 132 57 153
20 40 69 77 104 77 11 0 31 12 45 26 42 45 98 57 131 27z m-843 -289 c39 -33
39 -60 -1 -101 -17 -18 -48 -65 -67 -105 -38 -78 -57 -91 -167 -118 l-41 -10
-128 -277 c-149 -323 -266 -557 -307 -614 -40 -55 -83 -79 -141 -79 -38 0 -53
5 -74 26 -34 34 -32 44 72 331 97 268 140 373 190 474 l35 69 -49 0 c-59 0
-101 28 -101 68 l-1 27 -15 -29 c-9 -16 -43 -61 -76 -100 -56 -66 -100 -127
-363 -501 -140 -198 -163 -221 -247 -246 -76 -23 -146 -20 -170 8 -18 22 -16
119 6 270 10 66 16 129 14 138 -2 11 -31 -25 -81 -98 -76 -113 -199 -247 -253
-275 -15 -8 -52 -16 -83 -19 -45 -4 -60 -2 -80 14 l-23 19 49 105 c99 208 318
564 450 730 99 124 208 193 275 175 45 -12 49 -20 55 -127 5 -93 -3 -188 -23
-288 -10 -49 1 -39 116 107 162 205 175 218 247 254 50 24 83 34 134 36 98 6
129 -17 95 -71 -8 -12 -17 -38 -20 -57 l-7 -35 14 30 c22 47 111 123 181 155
167 74 394 139 493 140 52 0 66 -4 92 -26z"/>
<path d="M7473 6132 c-28 -4 -69 -46 -77 -78 -11 -43 12 -103 47 -125 102 -64
208 75 130 170 -20 23 -66 39 -100 33z m58 -42 c23 -13 25 -56 3 -68 -16 -9
-16 -11 0 -33 18 -27 20 -39 7 -39 -6 0 -18 14 -28 30 -9 17 -23 30 -30 30 -8
0 -13 -12 -13 -30 0 -16 -4 -30 -10 -30 -6 0 -10 32 -10 75 l0 75 31 0 c17 0
39 -5 50 -10z"/>
<path d="M7470 6055 c0 -26 22 -33 49 -16 21 13 5 41 -24 41 -20 0 -25 -5 -25
-25z"/>
<path d="M9144 3445 c-14 -21 -14 -32 -4 -74 11 -47 103 -214 149 -271 l21
-25 0 100 c0 87 -3 107 -25 150 -40 81 -92 145 -117 145 -4 0 -15 -11 -24 -25z"/>
<path d="M2439 2978 c24 -53 32 -63 52 -62 51 3 296 25 342 30 26 3 45 9 42
14 -9 14 -129 39 -270 55 -77 8 -152 18 -167 21 l-28 6 29 -64z"/>
<path d="M3155 2311 c-198 -52 -369 -106 -414 -130 -13 -8 -8 -13 29 -29 217
-93 372 -108 522 -52 97 36 132 85 143 198 l8 72 -34 -1 c-19 -1 -133 -27
-254 -58z"/>
<path d="M8217 2193 c-33 -38 -47 -104 -47 -235 0 -69 3 -134 6 -143 5 -11 18
3 48 52 57 92 66 121 66 224 0 66 -4 91 -16 103 -20 21 -37 20 -57 -1z"/>
<path d="M8617 9342 c-36 -40 -24 -59 146 -230 174 -175 205 -199 237 -182 26
14 43 46 36 68 -3 10 -84 95 -179 190 -182 181 -204 194 -240 154z"/>
<path d="M1762 8254 c-35 -24 -52 -68 -52 -133 0 -115 66 -242 211 -410 60
-69 70 -86 61 -100 -51 -72 -51 -110 1 -141 17 -11 36 -20 41 -20 5 0 26 18
47 41 l37 40 71 -52 c40 -29 70 -57 67 -64 -2 -7 4 -31 14 -53 11 -23 27 -69
36 -102 20 -71 9 -125 -31 -166 -35 -35 -104 -33 -170 5 -103 59 -175 171
-105 163 68 -8 101 37 73 97 -20 40 -88 81 -135 81 -83 0 -131 -122 -94 -243
14 -45 13 -47 -7 -47 -39 0 -108 -42 -134 -81 -51 -78 -47 -156 12 -208 62
-54 123 -54 145 0 12 28 11 36 -10 74 -24 44 -21 65 8 65 95 0 262 -128 262
-200 0 -51 -23 -56 -86 -20 -50 28 -59 30 -85 20 -26 -11 -29 -17 -29 -60 0
-34 7 -56 25 -81 40 -56 48 -80 49 -159 1 -88 -20 -142 -68 -171 l-31 -19 -6
98 c-7 109 -25 161 -72 210 -70 74 -179 95 -248 49 -71 -46 -104 -169 -75
-270 30 -104 141 -209 254 -240 70 -19 128 -123 87 -157 -20 -17 -47 -10 -206
49 -203 75 -245 78 -275 19 -20 -39 -14 -109 15 -166 28 -55 110 -142 176
-187 30 -21 55 -40 55 -42 0 -3 -104 35 -165 62 -97 41 -114 45 -130 29 -22
-23 -20 -105 4 -136 22 -28 156 -86 271 -119 45 -12 120 -23 185 -26 106 -5
111 -4 132 18 20 23 27 44 24 81 -2 26 -39 57 -107 87 -125 58 -274 173 -274
212 0 11 3 19 7 19 5 0 68 -21 142 -46 143 -49 195 -53 248 -19 61 40 74 162
29 260 -14 32 -26 59 -26 60 0 2 11 6 24 9 36 9 105 82 132 141 32 69 48 157
40 223 -6 48 -4 53 16 61 13 5 35 22 50 37 55 59 72 142 44 222 l-14 40 33 6
c45 9 120 78 153 140 22 43 27 64 27 131 0 52 -7 99 -19 133 -10 29 -16 55
-15 57 2 2 28 -1 56 -6 137 -25 253 73 261 220 4 61 2 70 -24 100 -32 39 -71
56 -89 41 -7 -6 -15 -37 -17 -70 -7 -104 -60 -147 -140 -117 -56 22 -153 79
-202 121 l-40 33 67 99 c37 54 70 113 73 130 8 42 -18 92 -53 100 -29 8 -26
10 -96 -89 l-34 -48 -17 68 c-9 37 -28 92 -43 122 -32 66 -124 160 -184 189
-53 26 -125 29 -157 6z m174 -186 c61 -56 120 -164 130 -238 l5 -45 -80 83
c-120 123 -190 234 -161 252 21 13 50 -1 106 -52z m-229 -1548 c24 -14 36 -32
47 -71 18 -60 21 -119 6 -119 -24 0 -89 41 -118 75 -36 40 -43 93 -16 119 21
21 42 20 81 -4z"/>
<path d="M4198 5090 c-71 -39 -108 -124 -87 -203 9 -35 42 -74 202 -236 106
-106 206 -199 224 -207 107 -46 231 24 248 141 12 75 -16 119 -197 301 -88 90
-179 176 -200 191 -53 36 -137 42 -190 13z"/>
</g>
</svg>
